<svg version="1" xmlns="http://www.w3.org/2000/svg" width="346.667" height="346.667" viewBox="0 0 260.000000 260.000000"><path d="M94 43.1c-3 1.2-77.5 75.3-79.6 79.1-1.8 3.5-1.8 11.1 0 14.6.8 1.5 18.7 19.9 39.8 40.9 30.2 30.1 39 38.2 41.6 38.8 5.3 1.1 10.7-.4 15.1-4.2l4.1-3.5 3.9 3.5c6.8 6.1 14.9 6.1 22 0l4.1-3.5 3.9 3.5c4.5 4 8.4 5.2 14.4 4.2 3.9-.7 6.8-3.3 42.5-38.9 21.1-20.9 39-39.3 39.8-40.8 1.8-3.5 1.8-11.1 0-14.6-.8-1.5-18.7-19.9-39.8-40.9-33.4-33.3-38.8-38.2-42-38.8-5.8-1.1-10.5.3-14.9 4.2l-3.9 3.5-3.9-3.5c-6.8-6.2-15.4-6.2-22.2 0l-4 3.6-3.2-3.1c-5.1-4.9-11.6-6.5-17.7-4.1zm12.3 10.7l2.8 2.6-32 32.1c-17.5 17.6-32.4 33-33 34.2-1.6 3.1-1.4 10.9.3 14.1.8 1.5 15.7 16.9 33 34.2l31.6 31.4-2.7 2.8c-2 2-3.6 2.8-6.3 2.8-3.3 0-5.7-2.1-41.3-37.8C25.9 137.4 21 132 21 129.5c0-2.6 5-8 38.4-41.4C95.8 51.8 98 49.8 100.7 50.4c1.5.4 4.1 1.9 5.6 3.4zm65 35c32.5 32.6 37.7 38.2 37.7 40.7s-5.2 8.1-37.7 40.7c-35.5 35.5-38 37.8-41.3 37.8-3.3 0-5.8-2.3-41.3-37.8C55.9 137.4 51 132 51 129.5c0-2.6 5-8 38.4-41.4 36.3-36.2 38.6-38.3 41.3-37.7 1.9.5 14.6 12.5 40.6 38.4zm30 0c32.5 32.6 37.7 38.2 37.7 40.7s-5.2 8.1-37.7 40.7c-35.6 35.7-38 37.8-41.3 37.8-2.7 0-4.3-.8-6.3-2.8l-2.7-2.8 31.6-31.4c17.3-17.3 32.2-32.7 33-34.2 1.7-3.2 1.9-11 .3-14.1-.6-1.2-15.5-16.6-33.1-34.3l-31.9-32.1 3.6-3.2c2.9-2.6 4.3-3.1 6.4-2.6 1.6.4 16.3 14.3 40.4 38.3z"/><path d="M101.5 101l-24 24v9l24 24 24.1 24h8.8l22.9-22.7c12.6-12.6 23.5-24.1 24.4-25.7 3.1-5.9 2-7.5-23.5-32.9L134.4 77h-8.8l-24.1 24z"/></svg>